<?xml version="1.0" standalone="no"?><!DOCTYPE svg PUBLIC "-//W3C//DTD SVG 1.1//EN" "http://www.w3.org/Graphics/SVG/1.1/DTD/svg11.dtd"><svg class="icon" width="200px" height="200.00px" viewBox="0 0 1024 1024" version="1.1" xmlns="http://www.w3.org/2000/svg"><path d="M511.658667 0C229.056 0 0 229.098667 0 511.68c0 282.602667 229.077333 511.68 511.658667 511.68s511.722667-229.077333 511.722667-511.68C1023.381333 229.098667 794.24 0 511.658667 0zM122.325333 511.68c0-215.018667 174.314667-389.333333 389.333333-389.333333 90.197333 0 173.013333 30.912 239.04 82.389333L204.714667 750.677333C153.237333 684.672 122.325333 601.856 122.325333 511.68zM511.658667 901.013333c-89.877333 0-172.416-30.677333-238.293333-81.834667l545.813333-545.792c51.114667 65.898667 81.834667 148.437333 81.834667 238.293333C901.013333 726.72 726.677333 901.013333 511.658667 901.013333z" /></svg>